<svg xmlns="http://www.w3.org/2000/svg" width="406.273" height="168.08" viewBox="0 0 406.273 168.08">
  <g id="Group_1" data-name="Group 1" transform="translate(-115.27 -120.92)">
    <path id="Rectangle_1" data-name="Rectangle 1" d="M0,0H309a0,0,0,0,1,0,0V141a25,25,0,0,1-25,25H25A25,25,0,0,1,0,141V0A0,0,0,0,1,0,0Z" transform="translate(164.7 123)" fill="#98ca3d"/>
    <g id="Path_1" data-name="Path 1" transform="matrix(0.755, -0.656, 0.656, 0.755, 448.976, 144.483)" fill="#698734">
      <path d="M 35.36297225952148 68.1510009765625 L 0.5120115280151367 37.85483169555664 L 32.31293106079102 1.271243929862976 L 35.36297225952148 68.1510009765625 Z" stroke="none"/>
      <path d="M 31.87038612365723 2.54248046875 L 1.217388153076172 37.80550384521484 L 34.81032943725586 67.00806427001953 L 31.87038612365723 2.54248046875 M 32.75547409057617 0 L 35.91561508178711 69.29392242431641 L -0.1933670043945312 37.90415191650391 L 32.75547409057617 0 Z" stroke="none" fill="#698734"/>
    </g>
    <g id="Path_2" data-name="Path 2" transform="translate(162.667 121.101) rotate(43)" fill="#698734">
      <path d="M 0.3591148555278778 68.07971954345703 L 3.233333826065063 1.205098867416382 L 35.21035766601562 35.13567352294922 L 0.3591148555278778 68.07971954345703 Z" stroke="none"/>
      <path d="M 3.681991577148438 2.41021728515625 L 0.9115943908691406 66.86945343017578 L 34.50407409667969 35.11528396606445 L 3.681991577148438 2.41021728515625 M 2.784656524658203 0 L 35.91663360595703 35.15608215332031 L -0.1933631896972656 69.29000091552734 L 2.784656524658203 0 Z" stroke="none" fill="#698734"/>
    </g>
  </g>
</svg>
