<svg xmlns="http://www.w3.org/2000/svg" width="380" height="36" viewBox="0 0 380 36">
  <g id="Subtraction_1" data-name="Subtraction 1" transform="translate(0)" fill="#4ec6de">
    <path d="M 379.4998168945312 35.5 L 0.5000085234642029 35.5 C 0.5000085234642029 35.4998664855957 0.5000084638595581 35.49973297119141 0.5000084638595581 35.49959945678711 C 0.5000084638595581 30.77449989318848 1.425358414649963 26.19099998474121 3.250308513641357 21.87644958496094 C 5.013158321380615 17.70870018005371 7.536808490753174 13.96564960479736 10.75125885009766 10.75125026702881 C 13.96565818786621 7.536799907684326 17.70870780944824 5.013150215148926 21.8764591217041 3.25029993057251 C 26.19100761413574 1.425349950790405 30.77450752258301 0.5 35.49960708618164 0.5 L 344.5002136230469 0.5 C 349.2253112792969 0.5 353.8088073730469 1.425349950790405 358.1233520507812 3.25029993057251 C 362.2911071777344 5.013150215148926 366.0341491699219 7.536799907684326 369.2485656738281 10.75125026702881 C 372.4630126953125 13.96564960479736 374.9866638183594 17.70870018005371 376.74951171875 21.87644958496094 C 378.574462890625 26.19099998474121 379.4998168945312 30.77449989318848 379.4998168945312 35.49959945678711 C 379.4998168945312 35.49973678588867 379.4998168945312 35.49986267089844 379.4998168945312 35.5 Z" stroke="none"/>
    <path d="M 378.9963073730469 35 C 378.9334106445312 30.51859092712402 378.0234375 26.17169952392578 376.2890014648438 22.07119941711426 C 374.5514221191406 17.96305084228516 372.063720703125 14.27344989776611 368.89501953125 11.1048002243042 C 365.7263488769531 7.936100006103516 362.0367736816406 5.448400020599365 357.9286193847656 3.710799932479858 C 353.6759948730469 1.912050008773804 349.1580200195312 1 344.5002136230469 1 L 35.49960708618164 1 C 30.8418083190918 1 26.32380867004395 1.912050008773804 22.07120895385742 3.710799932479858 C 17.96305847167969 5.448400020599365 14.27345848083496 7.936100006103516 11.10480880737305 11.1048002243042 C 7.936108589172363 14.27344989776611 5.448408603668213 17.96305084228516 3.710808515548706 22.07119941711426 C 1.976393580436707 26.17169952392578 1.066392421722412 30.51859092712402 1.003515243530273 35 L 378.9963073730469 35 M 379.9963684082031 36 L 0.003508447203785181 36 C 0.001158447237685323 35.83264923095703 8.447265827271622e-06 35.66894912719727 8.447265827271622e-06 35.49959945678711 C 8.447265827271622e-06 30.70730018615723 0.9386084675788879 26.05825042724609 2.789808511734009 21.68165016174316 C 4.577808380126953 17.45439910888672 7.137458324432373 13.65789985656738 10.39770889282227 10.39770030975342 C 13.65790843963623 7.137450218200684 17.45440864562988 4.577799797058105 21.6816577911377 2.789799928665161 C 26.05825805664062 0.9386000037193298 30.70730781555176 0 35.49960708618164 0 L 344.5002136230469 0 C 349.2925109863281 0 353.9415588378906 0.9386000037193298 358.3181457519531 2.789799928665161 C 362.54541015625 4.577799797058105 366.3419189453125 7.137450218200684 369.6021118164062 10.39770030975342 C 372.8623657226562 13.65789985656738 375.4219970703125 17.45439910888672 377.2100219726562 21.68165016174316 C 379.0612182617188 26.05825042724609 379.9998168945312 30.70730018615723 379.9998168945312 35.49959945678711 C 379.9998168945312 35.66339874267578 379.9986572265625 35.82675170898438 379.9963684082031 35.99900054931641 L 379.9963684082031 36 Z" stroke="none" fill="#4ec6de"/>
  </g>
</svg>
